<mxfile host="www.draw.io" modified="2020-02-27T02:26:27.431Z" agent="Mozilla/5.0 (Macintosh; Intel Mac OS X 10_15_3) AppleWebKit/537.36 (KHTML, like Gecko) Chrome/80.0.3987.122 Safari/537.36" etag="dQMfQcZkUQu6m2q1EzE5" version="12.7.8" type="github">
  <diagram id="B5GQmh24APGbaLQQGaa4" name="第 1 页">
    <mxGraphModel dx="786" dy="455" grid="1" gridSize="10" guides="1" tooltips="1" connect="1" arrows="1" fold="1" page="1" pageScale="1" pageWidth="827" pageHeight="1169" math="0" shadow="0">
      <root>
        <mxCell id="0" />
        <mxCell id="1" parent="0" />
      </root>
    </mxGraphModel>
  </diagram>
</mxfile>
